<svg width="43" height="43" viewBox="0 0 43 43" fill="none" xmlns="http://www.w3.org/2000/svg">
<g id="Frame" clip-path="url(#clip0_1_408)">
<g id="Group">
<g id="Group_2">
<path id="Vector" d="M21.7001 2.31876C10.3714 2.31876 1.1626 11.5275 1.1626 22.8563V26.553C1.1626 30.1305 3.70657 33.1117 7.07212 33.814C8.43683 37.524 12.0143 40.0813 16.0688 40.0813H21.7001C22.7999 40.0813 23.6876 39.1935 23.6876 38.0938C23.6876 37.0072 22.7999 36.1063 21.7001 36.1063H16.0688C14.3066 36.1063 12.7166 35.2848 11.6698 33.973H12.1999C13.2996 33.973 14.1874 33.0852 14.1874 31.9855V21.1205C14.1874 20.0207 13.2996 19.133 12.1999 19.133H8.58257C7.45635 19.133 6.38311 19.398 5.42907 19.8485C6.84682 12.1502 13.5911 6.29376 21.7001 6.29376C29.8091 6.29376 36.5534 12.1502 37.9711 19.8485C37.0171 19.398 35.9439 19.133 34.8176 19.133H31.2003C30.1006 19.133 29.2128 20.0207 29.2128 21.1205V31.9855C29.2128 33.0852 30.1006 33.973 31.2003 33.973H34.8176C38.9118 33.973 42.2376 30.6473 42.2376 26.553V22.8563C42.2376 11.5275 33.0288 2.31876 21.7001 2.31876Z" fill="white"/>
</g>
</g>
</g>
<defs>
<clipPath id="clip0_1_408">
<rect width="42.4" height="42.4" fill="white" transform="translate(0.5)"/>
</clipPath>
</defs>
</svg>
