<svg width="44" height="43" viewBox="0 0 44 43" fill="none" xmlns="http://www.w3.org/2000/svg">
<g id="Frame" clip-path="url(#clip0_1_359)">
<g id="Group">
<g id="Group_2">
<g id="Group_3">
<path id="Vector" d="M22.0986 5.16801C21.4126 5.16801 20.8564 5.72418 20.8564 6.4102C20.8564 7.09622 21.4126 7.65239 22.0986 7.65239C26.2089 7.65239 29.553 10.9959 29.553 15.1055C29.553 15.7915 30.1092 16.3477 30.7952 16.3477C31.4812 16.3477 32.0374 15.7915 32.0374 15.1055C32.0374 9.62598 27.5789 5.16801 22.0986 5.16801Z" fill="white"/>
</g>
</g>
<g id="Group_4">
<g id="Group_5">
<path id="Vector_2" d="M18.8978 0.533973C13.2856 1.70668 8.73509 6.21367 7.53771 11.8607C6.52665 16.6292 7.77256 21.4166 10.956 24.9954C12.5121 26.7446 13.4045 29.0537 13.4045 31.3369V33.8213C13.4045 35.4742 14.4866 36.8785 15.9794 37.3648C16.4703 40.2653 18.9878 42.5993 22.0998 42.5993C25.211 42.5993 27.7291 40.2661 28.2202 37.3648C29.713 36.8785 30.7951 35.4742 30.7951 33.8212V31.3368C30.7951 29.0491 31.6905 26.7678 33.3161 24.9131C35.6956 22.1986 37.006 18.7155 37.006 15.1057C37.006 5.70106 28.3978 -1.45071 18.8978 0.533973ZM22.0998 40.115C20.503 40.115 19.103 39.0163 18.586 37.5396H25.6135C25.0966 39.0163 23.6966 40.115 22.0998 40.115ZM28.3107 33.8213C28.3107 34.5062 27.7535 35.0635 27.0685 35.0635H17.131C16.4461 35.0635 15.8889 34.5062 15.8889 33.8213V32.5791H28.3107V33.8213ZM31.4478 23.2757C29.7154 25.2522 28.6495 27.6355 28.379 30.0947H15.8208C15.5506 27.6342 14.4875 25.2274 12.8124 23.3442C10.1592 20.3616 9.12249 16.3638 9.96809 12.3761C10.9551 7.72086 14.7479 3.93922 19.4061 2.96593C27.358 1.30413 34.5217 7.27591 34.5217 15.1057C34.5217 18.1127 33.43 21.0143 31.4478 23.2757Z" fill="white"/>
</g>
</g>
<g id="Group_6">
<g id="Group_7">
<path id="Vector_3" d="M4.62647 15.1055H2.14209C1.45607 15.1055 0.899902 15.6617 0.899902 16.3477C0.899902 17.0337 1.45607 17.5899 2.14209 17.5899H4.62647C5.31248 17.5899 5.86865 17.0337 5.86865 16.3477C5.86865 15.6617 5.31248 15.1055 4.62647 15.1055Z" fill="white"/>
</g>
</g>
<g id="Group_8">
<g id="Group_9">
<path id="Vector_4" d="M5.14091 8.89442L3.38421 7.13772C2.89918 6.6526 2.11262 6.6526 1.62751 7.13772C1.14239 7.62283 1.14239 8.4093 1.62751 8.89442L3.38421 10.6511C3.86924 11.1362 4.6558 11.1363 5.14091 10.6511C5.62603 10.166 5.62603 9.37953 5.14091 8.89442Z" fill="white"/>
</g>
</g>
<g id="Group_10">
<g id="Group_11">
<path id="Vector_5" d="M5.14091 22.044C4.6558 21.5589 3.86924 21.5589 3.38421 22.044L1.62751 23.8007C1.14239 24.2858 1.14239 25.0723 1.62751 25.5574C2.11254 26.0425 2.89909 26.0426 3.38421 25.5574L5.14091 23.8007C5.62603 23.3156 5.62603 22.5291 5.14091 22.044Z" fill="white"/>
</g>
</g>
<g id="Group_12">
<g id="Group_13">
<path id="Vector_6" d="M42.0576 15.1055H39.5732C38.8872 15.1055 38.3311 15.6617 38.3311 16.3477C38.3311 17.0337 38.8872 17.5899 39.5732 17.5899H42.0576C42.7436 17.5899 43.2998 17.0337 43.2998 16.3477C43.2998 15.6617 42.7436 15.1055 42.0576 15.1055Z" fill="white"/>
</g>
</g>
<g id="Group_14">
<g id="Group_15">
<path id="Vector_7" d="M42.5721 7.13772C42.087 6.6526 41.3005 6.6526 40.8154 7.13772L39.0587 8.89442C38.5735 9.37953 38.5735 10.166 39.0587 10.6511C39.5437 11.1362 40.3302 11.1362 40.8154 10.6511L42.5721 8.89442C43.0572 8.4093 43.0572 7.62283 42.5721 7.13772Z" fill="white"/>
</g>
</g>
<g id="Group_16">
<g id="Group_17">
<path id="Vector_8" d="M42.5721 23.8007L40.8154 22.044C40.3303 21.5589 39.5438 21.5589 39.0587 22.044C38.5735 22.5291 38.5735 23.3156 39.0587 23.8007L40.8154 25.5574C41.3004 26.0424 42.087 26.0425 42.5721 25.5574C43.0572 25.0723 43.0572 24.2858 42.5721 23.8007Z" fill="white"/>
</g>
</g>
</g>
</g>
<defs>
<clipPath id="clip0_1_359">
<rect width="42.4" height="42.4" fill="white" transform="translate(0.899902 0.199997)"/>
</clipPath>
</defs>
</svg>
