<svg width="25" height="24" viewBox="0 0 25 24" fill="none" xmlns="http://www.w3.org/2000/svg">
<g id="Frame" clip-path="url(#clip0_1_438)">
<g id="Group">
<g id="Group_2">
<path id="Vector" d="M11.0057 12.4336L12.5586 10.8805C12.589 10.8501 12.6132 10.8139 12.6297 10.7741C12.6462 10.7343 12.6547 10.6916 12.6547 10.6486C12.6547 10.6055 12.6462 10.5628 12.6297 10.523C12.6132 10.4832 12.589 10.4471 12.5586 10.4166L11.7313 9.58938C11.9013 9.27776 12.0377 8.9489 12.138 8.60838H13.3072C13.3943 8.60838 13.4777 8.57381 13.5393 8.51227C13.6008 8.45074 13.6354 8.36727 13.6354 8.28025V6.08425C13.6354 5.99723 13.6008 5.91377 13.5393 5.85223C13.4777 5.7907 13.3943 5.75613 13.3072 5.75613H12.1406C12.0402 5.41513 11.9034 5.08592 11.7326 4.77419L12.5586 3.94806C12.589 3.91761 12.6132 3.88144 12.6297 3.84162C12.6463 3.80181 12.6547 3.75913 12.6548 3.71603C12.6547 3.67293 12.6463 3.63026 12.6297 3.59044C12.6132 3.55063 12.589 3.51446 12.5586 3.484L11.0057 1.93094C10.9752 1.90045 10.9391 1.87626 10.8993 1.85976C10.8595 1.84325 10.8168 1.83476 10.7737 1.83476C10.7307 1.83476 10.688 1.84325 10.6482 1.85976C10.6084 1.87626 10.5722 1.90045 10.5418 1.93094L9.71568 2.75725C9.40395 2.58643 9.07474 2.44964 8.73374 2.34925V1.18225C8.73377 1.13915 8.7253 1.09647 8.70882 1.05665C8.69233 1.01683 8.66817 0.980651 8.63769 0.950177C8.60722 0.919703 8.57104 0.895534 8.53121 0.879053C8.49139 0.862572 8.44871 0.854101 8.40562 0.854126H6.20943C6.16633 0.854101 6.12365 0.862572 6.08383 0.879053C6.04401 0.895534 6.00783 0.919703 5.97736 0.950177C5.94688 0.980651 5.92271 1.01683 5.90623 1.05665C5.88975 1.09647 5.88128 1.13915 5.8813 1.18225V2.35131C5.54085 2.45174 5.21206 2.58814 4.90049 2.75819L4.07343 1.93094C4.04297 1.90044 4.0068 1.87625 3.96699 1.85975C3.92718 1.84324 3.8845 1.83474 3.8414 1.83474C3.7983 1.83474 3.75562 1.84324 3.71581 1.85975C3.67599 1.87625 3.63982 1.90044 3.60937 1.93094L2.0563 3.484C2.02581 3.51446 2.00162 3.55063 1.98511 3.59044C1.96861 3.63026 1.96011 3.67293 1.96011 3.71603C1.96011 3.75913 1.96861 3.80181 1.98511 3.84162C2.00162 3.88144 2.02581 3.91761 2.0563 3.94806L2.88318 4.77513C2.71314 5.08677 2.57675 5.41562 2.4763 5.75613H1.30762C1.26452 5.7561 1.22184 5.76457 1.18202 5.78105C1.1422 5.79753 1.10602 5.8217 1.07554 5.85218C1.04507 5.88265 1.0209 5.91883 1.00442 5.95865C0.987938 5.99848 0.979468 6.04115 0.979492 6.08425V8.28025C0.979468 8.32335 0.987938 8.36603 1.00442 8.40585C1.0209 8.44567 1.04507 8.48185 1.07554 8.51233C1.10602 8.5428 1.1422 8.56697 1.18202 8.58345C1.22184 8.59993 1.26452 8.6084 1.30762 8.60838H2.47443C2.57487 8.94938 2.71172 9.27859 2.88262 9.59031L2.0563 10.4166C2.02582 10.4471 2.00163 10.4832 1.98512 10.523C1.96862 10.5628 1.96013 10.6055 1.96013 10.6486C1.96013 10.6916 1.96862 10.7343 1.98512 10.7741C2.00163 10.8139 2.02582 10.8501 2.0563 10.8805L3.60899 12.4336C3.67058 12.495 3.75402 12.5295 3.84102 12.5295C3.92802 12.5295 4.01147 12.495 4.07305 12.4336L4.89918 11.6073C5.211 11.7781 5.54026 11.9149 5.8813 12.0154V13.1824C5.88131 13.2695 5.91587 13.3529 5.97741 13.4145C6.03895 13.476 6.12241 13.5106 6.20943 13.5106H8.40562C8.49264 13.5106 8.5761 13.476 8.63764 13.4145C8.69917 13.3529 8.73374 13.2695 8.73374 13.1824V12.0132C9.07419 11.9128 9.40299 11.7764 9.71455 11.6063L10.5418 12.4336C10.6033 12.495 10.6868 12.5296 10.7737 12.5296C10.8607 12.5296 10.9442 12.495 11.0057 12.4336ZM10.0005 10.9641C9.94838 10.9119 9.88018 10.8788 9.80692 10.8702C9.73367 10.8615 9.65963 10.8779 9.5968 10.9165C9.20478 11.1575 8.77695 11.3347 8.3293 11.4415C8.25767 11.4587 8.19389 11.4995 8.14822 11.5573C8.10255 11.6151 8.07764 11.6866 8.07749 11.7603V12.8534H6.53755V11.7633C6.53745 11.6895 6.51251 11.618 6.46676 11.5601C6.421 11.5023 6.35711 11.4616 6.28537 11.4445C5.83778 11.3375 5.41019 11.1595 5.01881 10.9174C4.95591 10.8787 4.88177 10.8622 4.80838 10.8708C4.73498 10.8794 4.66663 10.9124 4.61437 10.9647L3.8413 11.7372L2.75268 10.6482L3.52518 9.8755C3.57737 9.82325 3.61043 9.75493 3.619 9.68158C3.62758 9.60823 3.61117 9.53413 3.57243 9.47125C3.33036 9.07963 3.15255 8.65178 3.04574 8.20394C3.02868 8.1322 2.98794 8.0683 2.93012 8.02255C2.87229 7.9768 2.80073 7.95186 2.72699 7.95175H1.63574V6.41219H2.72868C2.80236 6.41207 2.87386 6.38717 2.93167 6.3415C2.98949 6.29582 3.03026 6.23203 3.04743 6.16038C3.15407 5.71281 3.33129 5.28509 3.57243 4.89325C3.61101 4.83033 3.62729 4.75626 3.61865 4.68297C3.61001 4.60967 3.57695 4.54141 3.5248 4.48919L2.75268 3.71594L3.8413 2.62731L4.61455 3.40056C4.66673 3.45273 4.73496 3.4858 4.80823 3.49444C4.8815 3.50308 4.95555 3.48679 5.01843 3.44819C5.41039 3.20716 5.83816 3.02995 6.28574 2.92319C6.35738 2.90599 6.42115 2.86521 6.46682 2.8074C6.51249 2.74959 6.5374 2.67811 6.53755 2.60444V1.51038H8.07749V2.60144C8.0776 2.67518 8.10254 2.74673 8.14829 2.80456C8.19404 2.86239 8.25794 2.90312 8.32968 2.92019C8.7775 3.02696 9.20535 3.20471 9.59699 3.44669C9.65982 3.48559 9.73396 3.5021 9.80735 3.49352C9.88075 3.48494 9.94908 3.45178 10.0012 3.39944L10.7737 2.62694L11.8626 3.71594L11.0901 4.48863C11.0379 4.54092 11.0048 4.60927 10.9963 4.68265C10.9877 4.75602 11.0041 4.83015 11.0428 4.89306C11.2849 5.2846 11.4626 5.7124 11.5693 6.16019C11.5864 6.23193 11.6271 6.29583 11.6849 6.34158C11.7428 6.38733 11.8143 6.41227 11.8881 6.41238H12.9791V7.95213H11.886C11.8123 7.95229 11.7408 7.97723 11.683 8.02293C11.6252 8.06864 11.5844 8.13245 11.5672 8.20413C11.4605 8.65172 11.2833 9.07949 11.0422 9.47144C11.0036 9.53427 10.9873 9.6083 10.9959 9.68156C11.0046 9.75481 11.0377 9.82301 11.0899 9.87513L11.8626 10.6486L10.7737 11.7372L10.0005 10.9641Z" fill="white"/>
<path id="Vector_2" d="M7.30724 4.34161C6.74545 4.34161 6.19628 4.5082 5.72917 4.82031C5.26207 5.13242 4.898 5.57604 4.68301 6.09506C4.46803 6.61408 4.41178 7.1852 4.52138 7.73619C4.63098 8.28718 4.9015 8.7933 5.29874 9.19054C5.69599 9.58779 6.2021 9.85831 6.75309 9.96791C7.30408 10.0775 7.8752 10.0213 8.39422 9.80627C8.91325 9.59129 9.35686 9.22722 9.66897 8.76011C9.98108 8.29301 10.1477 7.74384 10.1477 7.18205C10.1468 6.42898 9.8473 5.70699 9.3148 5.17449C8.78229 4.64199 8.06031 4.34246 7.30724 4.34161ZM7.30724 9.36661C6.87526 9.36661 6.45298 9.23852 6.09381 8.99854C5.73463 8.75855 5.45467 8.41745 5.28935 8.01837C5.12402 7.61928 5.08074 7.18013 5.16499 6.75645C5.24924 6.33277 5.45722 5.94358 5.76265 5.6381C6.06808 5.33263 6.45723 5.12457 6.88089 5.04025C7.30456 4.95593 7.74371 4.99913 8.14283 5.16439C8.54194 5.32965 8.88309 5.60955 9.12314 5.96868C9.36319 6.32782 9.49135 6.75008 9.49142 7.18205C9.49073 7.76112 9.26039 8.31627 8.85092 8.72574C8.44146 9.1352 7.8863 9.36554 7.30724 9.36624V9.36661Z" fill="white"/>
<path id="Vector_3" d="M22.9434 15.391H21.7764C21.676 15.05 21.5392 14.7207 21.3684 14.409L22.1945 13.5827C22.225 13.5523 22.2492 13.5161 22.2657 13.4763C22.2822 13.4365 22.2907 13.3939 22.2907 13.3508C22.2907 13.3077 22.2822 13.265 22.2657 13.2252C22.2492 13.1854 22.225 13.1493 22.1945 13.1188L20.6416 11.5661C20.6112 11.5356 20.575 11.5115 20.5352 11.495C20.4954 11.4784 20.4527 11.4699 20.4096 11.4699C20.3665 11.4699 20.3238 11.4784 20.284 11.495C20.2442 11.5115 20.208 11.5356 20.1775 11.5661L19.3514 12.3921C19.0397 12.2213 18.7106 12.0844 18.3697 11.9839V10.8169C18.3697 10.7299 18.3351 10.6464 18.2736 10.5849C18.212 10.5233 18.1286 10.4888 18.0415 10.4888H15.8454C15.7583 10.4888 15.6749 10.5233 15.6133 10.5849C15.5518 10.6464 15.5172 10.7299 15.5172 10.8169V11.9861C15.1767 12.0865 14.8479 12.2229 14.5362 12.393L13.7092 11.5661C13.6787 11.5357 13.6426 11.5115 13.6028 11.495C13.563 11.4785 13.5203 11.47 13.4772 11.47C13.4341 11.47 13.3915 11.4785 13.3517 11.495C13.3119 11.5115 13.2757 11.5357 13.2453 11.5661L11.6922 13.1188C11.6307 13.1804 11.5962 13.2638 11.5962 13.3508C11.5962 13.4378 11.6307 13.5212 11.6922 13.5827L12.5197 14.41C12.3496 14.7215 12.2132 15.0504 12.113 15.391H10.9434C10.8563 15.391 10.7729 15.4255 10.7113 15.4871C10.6498 15.5486 10.6152 15.6321 10.6152 15.7191V17.9151C10.6152 18.0021 10.6498 18.0856 10.7113 18.1471C10.7729 18.2086 10.8563 18.2432 10.9434 18.2432H12.1104C12.2107 18.5842 12.3475 18.9134 12.5184 19.2251L11.6922 20.0513C11.6307 20.1128 11.5962 20.1963 11.5962 20.2833C11.5962 20.3703 11.6307 20.4538 11.6922 20.5153L13.2453 22.0684C13.2757 22.0989 13.3119 22.1231 13.3517 22.1396C13.3915 22.1561 13.4341 22.1646 13.4772 22.1646C13.5203 22.1646 13.563 22.1561 13.6028 22.1396C13.6426 22.1231 13.6787 22.0989 13.7092 22.0684L14.5353 21.2434C14.847 21.4143 15.1762 21.551 15.5172 21.6514V22.8184C15.5172 22.8615 15.5257 22.9042 15.5422 22.944C15.5586 22.9838 15.5828 23.02 15.6133 23.0505C15.6438 23.0809 15.6799 23.1051 15.7198 23.1216C15.7596 23.1381 15.8023 23.1465 15.8454 23.1465H18.0414C18.0845 23.1465 18.1271 23.1381 18.167 23.1216C18.2068 23.1051 18.243 23.0809 18.2734 23.0505C18.3039 23.02 18.3281 22.9838 18.3446 22.944C18.361 22.9042 18.3695 22.8615 18.3695 22.8184V21.6493C18.71 21.5489 19.0389 21.4124 19.3505 21.2423L20.1775 22.0693C20.208 22.0998 20.2442 22.124 20.284 22.1405C20.3238 22.157 20.3665 22.1655 20.4096 22.1655C20.4527 22.1655 20.4954 22.157 20.5352 22.1405C20.575 22.124 20.6112 22.0998 20.6416 22.0693L22.1945 20.5166C22.225 20.4862 22.2492 20.45 22.2657 20.4102C22.2822 20.3704 22.2907 20.3277 22.2907 20.2846C22.2907 20.2415 22.2822 20.1988 22.2657 20.159C22.2492 20.1192 22.225 20.083 22.1945 20.0526L21.3674 19.2253C21.5375 18.9138 21.6739 18.585 21.7743 18.2445H22.9434C22.9865 18.2445 23.0291 18.2361 23.069 18.2196C23.1088 18.2031 23.145 18.1789 23.1754 18.1485C23.2059 18.118 23.2301 18.0818 23.2466 18.042C23.263 18.0022 23.2715 17.9595 23.2715 17.9164V15.7191C23.2715 15.676 23.263 15.6333 23.2466 15.5935C23.2301 15.5537 23.2059 15.5175 23.1754 15.487C23.145 15.4565 23.1088 15.4324 23.069 15.4159C23.0291 15.3994 22.9865 15.3909 22.9434 15.391ZM22.6152 17.5871H21.5223C21.4486 17.5873 21.3771 17.6122 21.3193 17.6578C21.2615 17.7035 21.2207 17.7673 21.2035 17.839C21.0968 18.2865 20.9196 18.7143 20.6785 19.1063C20.64 19.1692 20.6237 19.2432 20.6323 19.3165C20.641 19.3897 20.674 19.4579 20.7262 19.5101L21.4996 20.2836L20.4108 21.3722L19.6375 20.599C19.5853 20.5469 19.5171 20.5139 19.4439 20.5052C19.3706 20.4966 19.2966 20.5128 19.2337 20.5513C18.8416 20.7923 18.4138 20.9695 17.9662 21.0763C17.8945 21.0935 17.8307 21.1343 17.7851 21.1921C17.7394 21.2499 17.7145 21.3214 17.7144 21.3951V22.488H16.1735V21.397C16.1734 21.3232 16.1484 21.2517 16.1027 21.1938C16.0569 21.136 15.993 21.0953 15.9213 21.0782C15.4735 20.9714 15.0456 20.7937 14.654 20.5517C14.5911 20.5128 14.517 20.4964 14.4436 20.5049C14.3702 20.5135 14.3019 20.5466 14.2497 20.599L13.4772 21.3715L12.3884 20.2834L13.1609 19.5107C13.2132 19.4585 13.2463 19.3901 13.2549 19.3167C13.2634 19.2433 13.247 19.1692 13.2082 19.1063C12.9663 18.7147 12.7886 18.2869 12.6819 17.8391C12.6648 17.7674 12.6241 17.7035 12.5662 17.6578C12.5084 17.612 12.4368 17.5871 12.3631 17.587H11.2715V16.0472H12.3644C12.4381 16.047 12.5096 16.0221 12.5674 15.9764C12.6252 15.9307 12.666 15.8669 12.6832 15.7952C12.7899 15.3476 12.9671 14.9198 13.2082 14.5279C13.2468 14.4651 13.2631 14.391 13.2545 14.3178C13.2459 14.2445 13.2128 14.1763 13.1605 14.1242L12.3884 13.3508L13.4772 12.2621L14.2505 13.0354C14.3026 13.0877 14.3708 13.1208 14.444 13.1294C14.5173 13.1381 14.5914 13.1217 14.6542 13.083C15.0462 12.842 15.474 12.6648 15.9217 12.558C15.9933 12.5408 16.0571 12.5 16.1028 12.4422C16.1484 12.3844 16.1733 12.3129 16.1735 12.2393V11.1461H17.7134V12.2372C17.7135 12.3109 17.7385 12.3825 17.7842 12.4403C17.83 12.4982 17.8939 12.5389 17.9656 12.556C18.4134 12.6628 18.8411 12.8407 19.2327 13.0826C19.2956 13.1215 19.3698 13.138 19.4432 13.1294C19.5166 13.1209 19.585 13.0877 19.6372 13.0354L20.4097 12.2621L21.4985 13.351L20.7258 14.1236C20.6736 14.1759 20.6405 14.2442 20.6319 14.3176C20.6233 14.3909 20.6398 14.465 20.6785 14.5279C20.9205 14.9195 21.0982 15.3473 21.2049 15.795C21.2219 15.8668 21.2626 15.9307 21.3204 15.9765C21.3783 16.0223 21.4498 16.0473 21.5236 16.0474H22.6147L22.6152 17.5871Z" fill="white"/>
<path id="Vector_4" d="M16.943 13.9766C16.3812 13.9766 15.832 14.1432 15.3649 14.4553C14.8978 14.7674 14.5337 15.2111 14.3188 15.7301C14.1038 16.2491 14.0475 16.8202 14.1571 17.3712C14.2667 17.9222 14.5372 18.4283 14.9345 18.8256C15.3317 19.2228 15.8378 19.4933 16.3888 19.6029C16.9398 19.7125 17.5109 19.6563 18.03 19.4413C18.549 19.2263 18.9926 18.8622 19.3047 18.3951C19.6168 17.928 19.7834 17.3788 19.7834 16.8171C19.7826 16.064 19.483 15.342 18.9505 14.8095C18.418 14.277 17.696 13.9775 16.943 13.9766ZM16.943 19.0016C16.511 19.0016 16.0887 18.8735 15.7295 18.6335C15.3703 18.3935 15.0904 18.0524 14.9251 17.6533C14.7597 17.2542 14.7165 16.815 14.8008 16.3913C14.885 15.9676 15.0931 15.5784 15.3985 15.273C15.704 14.9675 16.0932 14.7595 16.5169 14.6752C16.9406 14.5909 17.3797 14.6342 17.7788 14.7995C18.1779 14.9648 18.5191 15.2448 18.7591 15.604C18.9991 15.9632 19.1272 16.3854 19.1272 16.8174C19.1264 17.3965 18.8961 17.9515 18.4866 18.3609C18.0771 18.7703 17.522 19.0006 16.943 19.0012V19.0016Z" fill="white"/>
<path id="Vector_5" d="M14.5079 3.91065C16.4143 4.47189 18.0608 5.68947 19.1558 7.3479C18.8932 7.58563 18.7271 7.91162 18.6893 8.26383C18.6514 8.61603 18.7443 8.96988 18.9503 9.25803C19.1564 9.54618 19.4612 9.74852 19.8067 9.82655C20.1523 9.90457 20.5144 9.85284 20.8243 9.68119C21.1342 9.50954 21.3701 9.22996 21.4873 8.89565C21.6044 8.56133 21.5945 8.19562 21.4595 7.86811C21.3246 7.5406 21.0739 7.27414 20.7552 7.11944C20.4365 6.96475 20.0721 6.93261 19.7313 7.02915C18.5516 5.22002 16.7652 3.89106 14.6933 3.28122C14.6517 3.26811 14.6079 3.26343 14.5645 3.26745C14.5211 3.27146 14.4789 3.2841 14.4404 3.30461C14.4019 3.32513 14.3679 3.35311 14.3403 3.38692C14.3128 3.42073 14.2923 3.4597 14.28 3.50154C14.2676 3.54337 14.2638 3.58725 14.2686 3.63059C14.2735 3.67394 14.2869 3.71588 14.3081 3.75397C14.3294 3.79207 14.358 3.82554 14.3923 3.85244C14.4267 3.87935 14.466 3.89914 14.5081 3.91065H14.5079ZM20.8996 8.41384C20.8996 8.56856 20.8537 8.71979 20.7677 8.84844C20.6818 8.97708 20.5596 9.07734 20.4167 9.13655C20.2737 9.19575 20.1165 9.21124 19.9647 9.18106C19.813 9.15088 19.6736 9.07638 19.5642 8.96698C19.4548 8.85758 19.3803 8.71819 19.3501 8.56645C19.3199 8.41471 19.3354 8.25742 19.3946 8.11449C19.4538 7.97155 19.5541 7.84938 19.6827 7.76342C19.8114 7.67747 19.9626 7.63159 20.1173 7.63159C20.3247 7.63179 20.5236 7.71427 20.6702 7.86093C20.8169 8.00758 20.8994 8.20644 20.8996 8.41384Z" fill="white"/>
<path id="Vector_6" d="M9.74129 20.0891C7.83518 19.5277 6.1891 18.3101 5.09429 16.6519C5.35691 16.4141 5.52297 16.0881 5.56086 15.7359C5.59875 15.3837 5.50583 15.0299 5.29978 14.7417C5.09373 14.4536 4.78894 14.2512 4.4434 14.1732C4.09786 14.0952 3.73569 14.1469 3.42582 14.3186C3.11594 14.4902 2.87999 14.7698 2.76285 15.1041C2.64572 15.4384 2.65558 15.8041 2.79057 16.1317C2.92555 16.4592 3.17623 16.7256 3.49491 16.8803C3.81359 17.035 4.17802 17.0672 4.51885 16.9706C5.69827 18.7796 7.48429 20.1085 9.55585 20.7185C9.58598 20.7275 9.61724 20.7319 9.64866 20.7319C9.72747 20.7317 9.80359 20.7032 9.86309 20.6515C9.9226 20.5998 9.96152 20.5285 9.97274 20.4504C9.98395 20.3724 9.96672 20.293 9.92419 20.2267C9.88166 20.1603 9.81667 20.1115 9.7411 20.0891H9.74129ZM3.3496 15.5859C3.34967 15.4312 3.39562 15.28 3.48162 15.1514C3.56762 15.0228 3.68981 14.9226 3.83276 14.8635C3.9757 14.8043 4.13297 14.7889 4.28469 14.8191C4.43641 14.8494 4.57575 14.9239 4.68512 15.0333C4.79448 15.1427 4.86894 15.2821 4.8991 15.4338C4.92925 15.5856 4.91374 15.7428 4.85452 15.8857C4.7953 16.0287 4.69504 16.1508 4.56641 16.2367C4.43777 16.3227 4.28655 16.3685 4.13185 16.3685C3.92438 16.3684 3.72547 16.2858 3.5788 16.1391C3.43213 15.9923 3.3497 15.7934 3.3496 15.5859Z" fill="white"/>
</g>
</g>
</g>
<defs>
<clipPath id="clip0_1_438">
<rect width="24" height="24" fill="white" transform="translate(0.125)"/>
</clipPath>
</defs>
</svg>
