<svg width="43" height="43" viewBox="0 0 43 43" fill="none" xmlns="http://www.w3.org/2000/svg">
<g id="Frame" clip-path="url(#clip0_1_393)">
<g id="Group">
<path id="Vector" d="M21.5592 11.925C19.7248 11.925 17.9315 12.469 16.4063 13.4881C14.881 14.5073 13.6922 15.9558 12.9902 17.6506C12.2882 19.3454 12.1045 21.2103 12.4624 23.0095C12.8203 24.8086 13.7036 26.4613 15.0008 27.7584C16.2979 29.0555 17.9505 29.9389 19.7497 30.2968C21.5489 30.6547 23.4138 30.471 25.1086 29.769C26.8034 29.067 28.2519 27.8782 29.2711 26.3529C30.2902 24.8277 30.8342 23.0344 30.8342 21.2C30.8314 18.741 29.8534 16.3834 28.1146 14.6446C26.3758 12.9058 24.0182 11.9278 21.5592 11.925ZM22.9722 25.8838V29.0168C22.0377 29.1945 21.0781 29.1944 20.1436 29.0164V25.8838C20.1436 25.76 20.109 25.6387 20.0436 25.5336C19.9782 25.4285 19.8846 25.3438 19.7735 25.2892C19.1447 24.9832 18.6051 24.5206 18.2067 23.9459C17.8082 23.3712 17.5642 22.7037 17.4982 22.0074C17.4322 21.3112 17.5464 20.6097 17.8297 19.9704C18.1131 19.331 18.5561 18.7753 19.1162 18.3566V21.8625C19.1162 21.9495 19.1333 22.0357 19.1666 22.1161C19.1999 22.1964 19.2487 22.2695 19.3102 22.331C19.3717 22.3925 19.4448 22.4413 19.5252 22.4746C19.6055 22.5079 19.6917 22.525 19.7787 22.525H23.3364C23.4234 22.525 23.5096 22.5079 23.59 22.4746C23.6704 22.4413 23.7434 22.3925 23.8049 22.331C23.8665 22.2695 23.9153 22.1964 23.9485 22.1161C23.9818 22.0357 23.9989 21.9495 23.9989 21.8625V18.3491C24.561 18.7673 25.0059 19.3234 25.2906 19.9635C25.5752 20.6037 25.6901 21.3065 25.6241 22.004C25.5581 22.7015 25.3135 23.3702 24.9138 23.9457C24.5141 24.5211 23.9728 24.9838 23.3422 25.2892C23.2312 25.3438 23.1376 25.4285 23.0722 25.5336C23.0068 25.6387 22.9722 25.76 22.9722 25.8838ZM24.2972 28.6539V26.2787C25.1681 25.7684 25.8786 25.0243 26.3479 24.1306C26.8173 23.237 27.0268 22.2297 26.9526 21.223C26.8785 20.2163 26.5236 19.2506 25.9283 18.4354C25.333 17.6202 24.5212 16.9881 23.5849 16.611C23.4843 16.5703 23.3753 16.555 23.2674 16.5663C23.1596 16.5776 23.0561 16.6152 22.9662 16.6758C22.8762 16.7365 22.8025 16.8182 22.7516 16.914C22.7006 17.0097 22.674 17.1165 22.6739 17.225V21.2H20.4412V17.2315C20.4412 17.123 20.4145 17.0162 20.3636 16.9205C20.3126 16.8247 20.2389 16.7429 20.149 16.6823C20.059 16.6217 19.9556 16.5841 19.8477 16.5728C19.7398 16.5615 19.6308 16.5768 19.5303 16.6175C18.5957 16.9955 17.7856 17.6276 17.1916 18.4422C16.5977 19.2568 16.2437 20.2214 16.1696 21.2268C16.0955 22.2322 16.3044 23.2382 16.7726 24.1311C17.2407 25.0239 17.9495 25.7679 18.8186 26.2787V28.653C17.0658 28.0093 15.5955 26.7692 14.6655 25.1501C13.7354 23.531 13.405 21.6362 13.732 19.7978C14.059 17.9595 15.0227 16.2949 16.4541 15.0959C17.8855 13.8968 19.6933 13.2399 21.5605 13.2402C23.4277 13.2405 25.2353 13.8981 26.6662 15.0976C28.0972 16.2971 29.0604 17.962 29.3868 19.8005C29.7132 21.639 29.3821 23.5337 28.4515 25.1525C27.5209 26.7713 26.0502 28.0109 24.2972 28.6539V28.6539Z" fill="white"/>
<path id="Vector_2" d="M33.1243 24.8725C33.1576 24.7444 33.2313 24.6305 33.3346 24.5477C33.4379 24.4649 33.5652 24.4177 33.6975 24.4132H34.558C34.7117 24.4132 34.8606 24.3597 34.9792 24.262C35.0978 24.1643 35.1788 24.0283 35.2082 23.8775C35.5593 22.1098 35.5593 20.2902 35.2082 18.5225C35.1788 18.3716 35.0978 18.2357 34.9792 18.138C34.8606 18.0403 34.7117 17.9868 34.558 17.9868H33.6975C33.5653 17.9823 33.438 17.9351 33.3347 17.8524C33.2314 17.7697 33.1576 17.6558 33.1243 17.5278C32.915 16.871 32.6501 16.2332 32.3324 15.6215C32.2651 15.5072 32.2365 15.3742 32.2511 15.2423C32.2657 15.1105 32.3226 14.9869 32.4133 14.8901L33.0253 14.2784C33.1339 14.1696 33.2014 14.0265 33.2162 13.8735C33.2309 13.7204 33.192 13.5671 33.1062 13.4396C32.1012 11.9438 30.8151 10.6576 29.3195 9.6525C29.1919 9.56689 29.0386 9.52818 28.8857 9.54299C28.7328 9.5578 28.5897 9.6252 28.481 9.7337L27.8689 10.3457C27.772 10.4363 27.6484 10.4931 27.5165 10.5077C27.3846 10.5223 27.2516 10.4938 27.1372 10.4266C26.5256 10.1088 25.8879 9.84389 25.2312 9.63471C25.1032 9.6014 24.9893 9.52758 24.9066 9.42428C24.824 9.32098 24.7769 9.19372 24.7725 9.06149V8.20102C24.7725 8.04731 24.7191 7.89838 24.6214 7.77975C24.5236 7.66112 24.3877 7.58018 24.2368 7.55081C22.4687 7.20145 20.6493 7.20145 18.8811 7.55081C18.7303 7.58018 18.5943 7.66112 18.4966 7.77975C18.3988 7.89838 18.3454 8.04731 18.3454 8.20102V9.06149C18.341 9.19372 18.294 9.32098 18.2113 9.42428C18.1286 9.52758 18.0148 9.6014 17.8867 9.63471C17.23 9.84389 16.5924 10.1088 15.9807 10.4266C15.8663 10.4938 15.7333 10.5222 15.6014 10.5076C15.4696 10.4931 15.346 10.4363 15.249 10.3457L14.637 9.7337C14.5282 9.62519 14.3852 9.55777 14.2323 9.54297C14.0794 9.52816 13.926 9.56687 13.7985 9.6525C12.3028 10.6576 11.0167 11.9438 10.0118 13.4396C9.9259 13.5671 9.88702 13.7204 9.90177 13.8735C9.91652 14.0265 9.98399 14.1696 10.0926 14.2784L10.7047 14.8897C10.7953 14.9867 10.8522 15.1104 10.8668 15.2423C10.8814 15.3743 10.8529 15.5074 10.7855 15.6218C10.4679 16.2334 10.203 16.8709 9.99365 17.5275C9.96037 17.6556 9.88659 17.7695 9.78329 17.8523C9.68 17.9351 9.55272 17.9823 9.42043 17.9868H8.56001C8.40632 17.9868 8.25741 18.0403 8.13879 18.138C8.02017 18.2357 7.93922 18.3717 7.9098 18.5225C7.55871 20.2902 7.55871 22.1098 7.9098 23.8775C7.93922 24.0284 8.02017 24.1643 8.13879 24.262C8.25741 24.3597 8.40632 24.4132 8.56001 24.4132H9.42048C9.55273 24.4177 9.67997 24.4649 9.78326 24.5476C9.88655 24.6303 9.96036 24.7442 9.9937 24.8722C10.2029 25.5288 10.4678 26.1664 10.7856 26.7779C10.8529 26.8923 10.8815 27.0254 10.8669 27.1574C10.8523 27.2893 10.7954 27.413 10.7047 27.5099L10.0927 28.1217C9.98405 28.2304 9.91658 28.3735 9.90182 28.5266C9.88707 28.6796 9.92595 28.833 10.0118 28.9605C11.0168 30.4562 12.3029 31.7424 13.7985 32.7475C13.926 32.8335 14.0794 32.8723 14.2324 32.8575C14.3854 32.8427 14.5284 32.7751 14.637 32.6663L15.2491 32.0543C15.3461 31.9639 15.4697 31.9072 15.6015 31.8927C15.7333 31.8781 15.8663 31.9064 15.9808 31.9734C16.5924 32.2912 17.2301 32.5561 17.8868 32.7653C18.0148 32.7986 18.1287 32.8724 18.2114 32.9757C18.294 33.079 18.3411 33.2063 18.3455 33.3385V34.199C18.3455 34.3527 18.399 34.5016 18.4967 34.6202C18.5944 34.7388 18.7303 34.8198 18.8812 34.8492C20.6492 35.2003 22.4689 35.2003 24.2369 34.8492C24.3877 34.8198 24.5236 34.7388 24.6214 34.6202C24.7191 34.5016 24.7725 34.3527 24.7725 34.199V33.3385C24.777 33.2063 24.824 33.079 24.9067 32.9757C24.9894 32.8724 25.1032 32.7986 25.2313 32.7653C25.888 32.5561 26.5256 32.2912 27.1373 31.9734C27.2517 31.9064 27.3847 31.878 27.5165 31.8926C27.6483 31.9072 27.7719 31.9639 27.869 32.0543L28.481 32.6663C28.5897 32.7749 28.7328 32.8424 28.8857 32.8572C29.0387 32.872 29.192 32.8332 29.3195 32.7475C30.8152 31.7424 32.1013 30.4562 33.1062 28.9604C33.1921 28.8329 33.231 28.6795 33.2162 28.5265C33.2015 28.3735 33.134 28.2304 33.0254 28.1216L32.4133 27.5102C32.3226 27.4132 32.2657 27.2895 32.2513 27.1574C32.2368 27.0254 32.2655 26.8922 32.3331 26.7779C32.6504 26.1663 32.9151 25.5289 33.1243 24.8725ZM31.8614 24.4711C31.6753 25.0554 31.4398 25.6227 31.1575 26.1671C30.9601 26.5314 30.8846 26.9493 30.942 27.3597C30.9994 27.77 31.1867 28.1512 31.4764 28.4474L31.6945 28.6647C30.9438 29.6844 30.0434 30.5848 29.0238 31.3354L28.8057 31.1174C28.5098 30.8276 28.1289 30.6402 27.7187 30.5827C27.3085 30.5252 26.8907 30.6006 26.5265 30.7978C25.9821 31.0805 25.4146 31.3162 24.8301 31.5024C24.4341 31.6212 24.0865 31.8635 23.8378 32.1937C23.5891 32.524 23.4523 32.9251 23.4475 33.3385V33.6419C22.1959 33.8353 20.9221 33.8353 19.6705 33.6419V33.3385C19.6656 32.9251 19.5289 32.524 19.2802 32.1937C19.0315 31.8635 18.6839 31.6212 18.2879 31.5024C17.7034 31.3162 17.1359 31.0805 16.5915 30.7978C16.2273 30.6007 15.8095 30.5254 15.3994 30.5829C14.9892 30.6404 14.6082 30.8277 14.3123 31.1174L14.0942 31.3351C13.0747 30.5845 12.1743 29.6842 11.4235 28.6647L11.6416 28.447C11.9311 28.1509 12.1184 27.7699 12.176 27.3598C12.2336 26.9497 12.1586 26.5319 11.9618 26.1674C11.6785 25.6231 11.4426 25.0555 11.2566 24.4708C11.1377 24.0748 10.8954 23.7272 10.5652 23.4785C10.2349 23.2298 9.83389 23.0931 9.42049 23.0882H9.11707C8.92297 21.8369 8.92297 20.5631 9.11707 19.3118H9.42049C9.83393 19.3069 10.235 19.1701 10.5653 18.9214C10.8955 18.6726 11.1378 18.3249 11.2566 17.9289C11.4427 17.3442 11.6786 16.7766 11.9618 16.2322C12.1585 15.8678 12.2336 15.45 12.176 15.0399C12.1183 14.6297 11.9311 14.2488 11.6416 13.9526L11.4235 13.7352C12.1743 12.7158 13.0747 11.8155 14.0942 11.0649L14.3123 11.2826C14.6084 11.572 14.9893 11.7592 15.3994 11.8167C15.8095 11.8742 16.2272 11.799 16.5915 11.6022C17.1359 11.3195 17.7034 11.0838 18.2879 10.8976C18.6839 10.7787 19.0315 10.5365 19.2802 10.2063C19.5289 9.87598 19.6656 9.47492 19.6705 9.06152V8.75809C20.9221 8.56464 22.1959 8.56464 23.4475 8.75809V9.06152C23.4523 9.47492 23.5891 9.87598 23.8378 10.2063C24.0865 10.5365 24.4341 10.7787 24.8301 10.8976C25.4146 11.0838 25.9821 11.3195 26.5265 11.6022C26.8907 11.7992 27.3085 11.8744 27.7186 11.8169C28.1287 11.7594 28.5097 11.5722 28.8057 11.2826L29.0238 11.0649C30.0433 11.8155 30.9437 12.7158 31.6945 13.7352L31.4764 13.953C31.1867 14.2489 30.9994 14.6299 30.9419 15.0401C30.8844 15.4502 30.9597 15.868 31.1568 16.2322C31.4395 16.7767 31.6752 17.3443 31.8614 17.9289V17.9292C31.9803 18.3252 32.2225 18.6728 32.5528 18.9215C32.8831 19.1702 33.2841 19.3069 33.6975 19.3118H34.0009C34.195 20.5631 34.195 21.8369 34.0009 23.0882H33.6975C33.2841 23.0931 32.883 23.2299 32.5527 23.4786C32.2225 23.7274 31.9802 24.0751 31.8614 24.4711V24.4711Z" fill="white"/>
<path id="Vector_3" d="M38.9251 7.28749C38.9251 6.63234 38.7308 5.9919 38.3668 5.44717C38.0028 4.90243 37.4855 4.47786 36.8802 4.22714C36.2749 3.97643 35.6089 3.91083 34.9663 4.03864C34.3238 4.16645 33.7335 4.48194 33.2703 4.9452C32.807 5.40846 32.4915 5.99869 32.3637 6.64126C32.2359 7.28382 32.3015 7.94985 32.5522 8.55513C32.8029 9.16041 33.2275 9.67775 33.7722 10.0417C34.317 10.4057 34.9574 10.6 35.6126 10.6C36.4908 10.599 37.3327 10.2496 37.9537 9.62864C38.5747 9.00765 38.924 8.16571 38.9251 7.28749ZM33.6251 7.28749C33.6251 6.8944 33.7416 6.51014 33.96 6.1833C34.1784 5.85645 34.4888 5.60171 34.852 5.45128C35.2151 5.30085 35.6148 5.26149 36.0003 5.33818C36.3858 5.41487 36.74 5.60416 37.0179 5.88212C37.2959 6.16007 37.4852 6.51421 37.5619 6.89975C37.6385 7.28529 37.5992 7.68491 37.4488 8.04808C37.2983 8.41124 37.0436 8.72165 36.7167 8.94004C36.3899 9.15843 36.0056 9.27499 35.6126 9.27499C35.0856 9.27442 34.5804 9.06484 34.2078 8.69223C33.8352 8.31963 33.6256 7.81443 33.6251 7.28749Z" fill="white"/>
<path id="Vector_4" d="M11.1001 35.1125C11.1001 34.4573 10.9058 33.8169 10.5418 33.2722C10.1779 32.7274 9.66052 32.3029 9.05524 32.0521C8.44996 31.8014 7.78392 31.7358 7.14136 31.8636C6.4988 31.9915 5.90857 32.3069 5.44531 32.7702C4.98205 33.2335 4.66656 33.8237 4.53875 34.4663C4.41093 35.1088 4.47653 35.7748 4.72725 36.3801C4.97796 36.9854 5.40253 37.5028 5.94727 37.8667C6.49201 38.2307 7.13245 38.425 7.7876 38.425C8.66581 38.424 9.50776 38.0746 10.1288 37.4536C10.7497 36.8326 11.0991 35.9907 11.1001 35.1125ZM5.8001 35.1125C5.8001 34.7194 5.91666 34.3351 6.13505 34.0083C6.35344 33.6815 6.66385 33.4267 7.02702 33.2763C7.39018 33.1259 7.7898 33.0865 8.17534 33.1632C8.56088 33.2399 8.91502 33.4292 9.19297 33.7071C9.47093 33.9851 9.66022 34.3392 9.73691 34.7247C9.8136 35.1103 9.77424 35.5099 9.62381 35.8731C9.47338 36.2362 9.21864 36.5466 8.8918 36.765C8.56495 36.9834 8.18069 37.1 7.7876 37.1C7.26066 37.0994 6.75546 36.8898 6.38286 36.5172C6.01026 36.1446 5.80067 35.6394 5.8001 35.1125Z" fill="white"/>
<path id="Vector_5" d="M5.05739 30.8056C2.94476 27.1423 2.09945 22.8844 2.65246 18.6919C3.20546 14.4994 5.12592 10.6063 8.11617 7.61609C11.1064 4.62587 14.9995 2.70546 19.192 2.15251C23.3846 1.59955 27.6424 2.44492 31.3057 4.55759L31.9695 3.41055C28.0536 1.15167 23.5018 0.247636 19.0198 0.838588C14.5378 1.42954 10.376 3.48247 7.17931 6.67915C3.98266 9.87584 1.92977 14.0377 1.33887 18.5197C0.74796 23.0017 1.65204 27.5535 3.91096 31.4694L5.05739 30.8056Z" fill="white"/>
<path id="Vector_6" d="M38.3428 11.5944C40.4546 15.2564 41.3001 19.5125 40.7483 23.7037C40.1964 27.8948 38.2781 31.787 35.2903 34.7775C32.3025 37.7681 28.4121 39.69 24.2215 40.2457C20.0309 40.8015 15.774 39.9599 12.11 37.8515L11.4475 38.9992C15.3642 41.2536 19.9149 42.1535 24.3949 41.5596C28.8748 40.9657 33.0338 38.9111 36.2278 35.714C39.4218 32.517 41.4724 28.356 42.062 23.8755C42.6516 19.395 41.7474 14.8451 39.4892 10.9306L38.3428 11.5944Z" fill="white"/>
</g>
</g>
<defs>
<clipPath id="clip0_1_393">
<rect width="42.4" height="42.4" fill="white" transform="translate(0.5)"/>
</clipPath>
</defs>
</svg>
